<mxfile host="app.diagrams.net" agent="Mozilla/5.0 (X11; Ubuntu; Linux x86_64; rv:135.0) Gecko/20100101 Firefox/135.0" version="26.1.0">
  <diagram name="PÃ¡gina-1" id="klKYzCjV6aNcObQixcEk">
    <mxGraphModel dx="2261" dy="1959" grid="1" gridSize="10" guides="1" tooltips="1" connect="1" arrows="1" fold="1" page="1" pageScale="1" pageWidth="827" pageHeight="1169" math="0" shadow="0">
      <root>
        <mxCell id="0" />
        <mxCell id="1" parent="0" />
        <mxCell id="1G_mwM_GGULK1q_mN7D--5" value="" style="endArrow=none;html=1;rounded=0;" parent="1" edge="1">
          <mxGeometry width="50" height="50" relative="1" as="geometry">
            <mxPoint x="-200" y="150" as="sourcePoint" />
            <mxPoint x="-140" y="150" as="targetPoint" />
          </mxGeometry>
        </mxCell>
        <mxCell id="1G_mwM_GGULK1q_mN7D--8" value="" style="endArrow=none;html=1;rounded=0;" parent="1" edge="1">
          <mxGeometry width="50" height="50" relative="1" as="geometry">
            <mxPoint x="-200" y="640" as="sourcePoint" />
            <mxPoint x="-200" y="150" as="targetPoint" />
          </mxGeometry>
        </mxCell>
        <mxCell id="1G_mwM_GGULK1q_mN7D--9" value="" style="endArrow=none;html=1;rounded=0;" parent="1" edge="1">
          <mxGeometry width="50" height="50" relative="1" as="geometry">
            <mxPoint x="-140" y="640" as="sourcePoint" />
            <mxPoint x="-140" y="150" as="targetPoint" />
          </mxGeometry>
        </mxCell>
        <mxCell id="1G_mwM_GGULK1q_mN7D--10" value="" style="endArrow=none;html=1;rounded=0;" parent="1" edge="1">
          <mxGeometry width="50" height="50" relative="1" as="geometry">
            <mxPoint x="-200" y="640" as="sourcePoint" />
            <mxPoint x="-140" y="640" as="targetPoint" />
          </mxGeometry>
        </mxCell>
        <mxCell id="1G_mwM_GGULK1q_mN7D--11" value="&lt;div&gt;base.py&lt;/div&gt;" style="text;html=1;align=center;verticalAlign=middle;whiteSpace=wrap;rounded=0;" parent="1" vertex="1">
          <mxGeometry x="-200" y="390" width="60" height="30" as="geometry" />
        </mxCell>
        <mxCell id="1G_mwM_GGULK1q_mN7D--12" value="" style="endArrow=none;html=1;rounded=0;" parent="1" edge="1">
          <mxGeometry width="50" height="50" relative="1" as="geometry">
            <mxPoint x="-65" y="562" as="sourcePoint" />
            <mxPoint x="-65" y="502" as="targetPoint" />
          </mxGeometry>
        </mxCell>
        <mxCell id="1G_mwM_GGULK1q_mN7D--13" value="" style="endArrow=none;html=1;rounded=0;" parent="1" edge="1">
          <mxGeometry width="50" height="50" relative="1" as="geometry">
            <mxPoint x="-65" y="502" as="sourcePoint" />
            <mxPoint x="45" y="502" as="targetPoint" />
          </mxGeometry>
        </mxCell>
        <mxCell id="1G_mwM_GGULK1q_mN7D--14" value="" style="endArrow=none;html=1;rounded=0;" parent="1" edge="1">
          <mxGeometry width="50" height="50" relative="1" as="geometry">
            <mxPoint x="-65" y="562" as="sourcePoint" />
            <mxPoint x="45" y="562" as="targetPoint" />
          </mxGeometry>
        </mxCell>
        <mxCell id="1G_mwM_GGULK1q_mN7D--15" value="" style="endArrow=none;html=1;rounded=0;" parent="1" edge="1">
          <mxGeometry width="50" height="50" relative="1" as="geometry">
            <mxPoint x="45" y="562" as="sourcePoint" />
            <mxPoint x="45" y="502" as="targetPoint" />
          </mxGeometry>
        </mxCell>
        <mxCell id="1G_mwM_GGULK1q_mN7D--16" value="&lt;div&gt;export.py&lt;/div&gt;" style="text;html=1;align=center;verticalAlign=middle;resizable=0;points=[];autosize=1;strokeColor=none;fillColor=none;" parent="1" vertex="1">
          <mxGeometry x="-45" y="512" width="70" height="30" as="geometry" />
        </mxCell>
        <mxCell id="1G_mwM_GGULK1q_mN7D--17" value="&lt;div&gt;class PageMixin&lt;/div&gt;" style="text;html=1;align=center;verticalAlign=middle;resizable=0;points=[];autosize=1;strokeColor=none;fillColor=none;" parent="1" vertex="1">
          <mxGeometry x="-225" y="110" width="110" height="30" as="geometry" />
        </mxCell>
        <mxCell id="1G_mwM_GGULK1q_mN7D--18" value="class ExportWindow" style="text;html=1;align=center;verticalAlign=middle;resizable=0;points=[];autosize=1;strokeColor=none;fillColor=none;" parent="1" vertex="1">
          <mxGeometry x="-75" y="470" width="130" height="30" as="geometry" />
        </mxCell>
        <mxCell id="1G_mwM_GGULK1q_mN7D--20" value="" style="endArrow=classic;html=1;rounded=0;entryX=1;entryY=0.25;entryDx=0;entryDy=0;" parent="1" edge="1">
          <mxGeometry width="50" height="50" relative="1" as="geometry">
            <mxPoint x="-60" y="512" as="sourcePoint" />
            <mxPoint x="-140" y="512" as="targetPoint" />
          </mxGeometry>
        </mxCell>
        <mxCell id="1G_mwM_GGULK1q_mN7D--21" value="" style="endArrow=none;html=1;rounded=0;" parent="1" edge="1">
          <mxGeometry width="50" height="50" relative="1" as="geometry">
            <mxPoint x="220" y="478" as="sourcePoint" />
            <mxPoint x="220" y="280" as="targetPoint" />
          </mxGeometry>
        </mxCell>
        <mxCell id="1G_mwM_GGULK1q_mN7D--22" value="" style="endArrow=none;html=1;rounded=0;" parent="1" edge="1">
          <mxGeometry width="50" height="50" relative="1" as="geometry">
            <mxPoint x="220" y="280" as="sourcePoint" />
            <mxPoint x="340" y="280" as="targetPoint" />
          </mxGeometry>
        </mxCell>
        <mxCell id="1G_mwM_GGULK1q_mN7D--24" value="" style="endArrow=none;html=1;rounded=0;" parent="1" edge="1">
          <mxGeometry width="50" height="50" relative="1" as="geometry">
            <mxPoint x="220" y="478" as="sourcePoint" />
            <mxPoint x="340" y="478" as="targetPoint" />
          </mxGeometry>
        </mxCell>
        <mxCell id="1G_mwM_GGULK1q_mN7D--25" value="" style="endArrow=classic;html=1;rounded=0;" parent="1" edge="1">
          <mxGeometry width="50" height="50" relative="1" as="geometry">
            <mxPoint x="220" y="460" as="sourcePoint" />
            <mxPoint x="-140" y="460" as="targetPoint" />
          </mxGeometry>
        </mxCell>
        <mxCell id="1G_mwM_GGULK1q_mN7D--26" value="&lt;div&gt;project_editor.py&lt;/div&gt;" style="text;html=1;align=center;verticalAlign=middle;resizable=0;points=[];autosize=1;strokeColor=none;fillColor=none;" parent="1" vertex="1">
          <mxGeometry x="225" y="350" width="110" height="30" as="geometry" />
        </mxCell>
        <mxCell id="1G_mwM_GGULK1q_mN7D--27" value="" style="endArrow=none;html=1;rounded=0;" parent="1" edge="1">
          <mxGeometry width="50" height="50" relative="1" as="geometry">
            <mxPoint x="340" y="478" as="sourcePoint" />
            <mxPoint x="340" y="280" as="targetPoint" />
          </mxGeometry>
        </mxCell>
        <mxCell id="1G_mwM_GGULK1q_mN7D--28" value="" style="endArrow=none;html=1;rounded=0;" parent="1" edge="1">
          <mxGeometry width="50" height="50" relative="1" as="geometry">
            <mxPoint x="440" y="560" as="sourcePoint" />
            <mxPoint x="440" y="240" as="targetPoint" />
          </mxGeometry>
        </mxCell>
        <mxCell id="1G_mwM_GGULK1q_mN7D--29" value="" style="endArrow=none;html=1;rounded=0;" parent="1" edge="1">
          <mxGeometry width="50" height="50" relative="1" as="geometry">
            <mxPoint x="440" y="560" as="sourcePoint" />
            <mxPoint x="520" y="560" as="targetPoint" />
          </mxGeometry>
        </mxCell>
        <mxCell id="1G_mwM_GGULK1q_mN7D--30" value="" style="endArrow=none;html=1;rounded=0;" parent="1" edge="1">
          <mxGeometry width="50" height="50" relative="1" as="geometry">
            <mxPoint x="520" y="560" as="sourcePoint" />
            <mxPoint x="520" y="240" as="targetPoint" />
          </mxGeometry>
        </mxCell>
        <mxCell id="1G_mwM_GGULK1q_mN7D--31" value="" style="endArrow=none;html=1;rounded=0;" parent="1" edge="1">
          <mxGeometry width="50" height="50" relative="1" as="geometry">
            <mxPoint x="440" y="240" as="sourcePoint" />
            <mxPoint x="520" y="240" as="targetPoint" />
          </mxGeometry>
        </mxCell>
        <mxCell id="1G_mwM_GGULK1q_mN7D--32" value="&lt;div&gt;window.py&lt;/div&gt;" style="text;html=1;align=center;verticalAlign=middle;resizable=0;points=[];autosize=1;strokeColor=none;fillColor=none;" parent="1" vertex="1">
          <mxGeometry x="440" y="390" width="80" height="30" as="geometry" />
        </mxCell>
        <mxCell id="1G_mwM_GGULK1q_mN7D--33" value="" style="endArrow=classic;html=1;rounded=0;exitX=-0.037;exitY=0.333;exitDx=0;exitDy=0;exitPerimeter=0;" parent="1" source="1G_mwM_GGULK1q_mN7D--32" edge="1">
          <mxGeometry width="50" height="50" relative="1" as="geometry">
            <mxPoint x="390" y="440" as="sourcePoint" />
            <mxPoint x="340" y="400" as="targetPoint" />
          </mxGeometry>
        </mxCell>
        <mxCell id="1G_mwM_GGULK1q_mN7D--34" value="" style="endArrow=none;html=1;rounded=0;" parent="1" edge="1">
          <mxGeometry width="50" height="50" relative="1" as="geometry">
            <mxPoint x="600" y="480" as="sourcePoint" />
            <mxPoint x="600" y="320" as="targetPoint" />
          </mxGeometry>
        </mxCell>
        <mxCell id="1G_mwM_GGULK1q_mN7D--35" value="" style="endArrow=none;html=1;rounded=0;" parent="1" edge="1">
          <mxGeometry width="50" height="50" relative="1" as="geometry">
            <mxPoint x="670" y="480" as="sourcePoint" />
            <mxPoint x="670" y="320" as="targetPoint" />
          </mxGeometry>
        </mxCell>
        <mxCell id="1G_mwM_GGULK1q_mN7D--36" value="&lt;div&gt;main.py&lt;/div&gt;" style="text;html=1;align=center;verticalAlign=middle;resizable=0;points=[];autosize=1;strokeColor=none;fillColor=none;" parent="1" vertex="1">
          <mxGeometry x="600" y="390" width="70" height="30" as="geometry" />
        </mxCell>
        <mxCell id="1G_mwM_GGULK1q_mN7D--37" value="" style="endArrow=none;html=1;rounded=0;" parent="1" edge="1">
          <mxGeometry width="50" height="50" relative="1" as="geometry">
            <mxPoint x="670" y="320" as="sourcePoint" />
            <mxPoint x="600" y="320" as="targetPoint" />
          </mxGeometry>
        </mxCell>
        <mxCell id="1G_mwM_GGULK1q_mN7D--38" value="" style="endArrow=none;html=1;rounded=0;" parent="1" edge="1">
          <mxGeometry width="50" height="50" relative="1" as="geometry">
            <mxPoint x="670" y="480" as="sourcePoint" />
            <mxPoint x="600" y="480" as="targetPoint" />
          </mxGeometry>
        </mxCell>
        <mxCell id="1G_mwM_GGULK1q_mN7D--39" value="" style="endArrow=classic;html=1;rounded=0;exitX=-0.029;exitY=0.3;exitDx=0;exitDy=0;exitPerimeter=0;" parent="1" source="1G_mwM_GGULK1q_mN7D--36" edge="1">
          <mxGeometry width="50" height="50" relative="1" as="geometry">
            <mxPoint x="390" y="450" as="sourcePoint" />
            <mxPoint x="520" y="400" as="targetPoint" />
          </mxGeometry>
        </mxCell>
        <mxCell id="1G_mwM_GGULK1q_mN7D--40" value="class FbeApplication" style="text;html=1;align=center;verticalAlign=middle;resizable=0;points=[];autosize=1;strokeColor=none;fillColor=none;" parent="1" vertex="1">
          <mxGeometry x="570" y="288" width="130" height="30" as="geometry" />
        </mxCell>
        <mxCell id="1G_mwM_GGULK1q_mN7D--41" value="class FbeWindow" style="text;html=1;align=center;verticalAlign=middle;resizable=0;points=[];autosize=1;strokeColor=none;fillColor=none;" parent="1" vertex="1">
          <mxGeometry x="420" y="210" width="120" height="30" as="geometry" />
        </mxCell>
        <mxCell id="1G_mwM_GGULK1q_mN7D--42" value="&lt;div&gt;class ProjectEditor&lt;/div&gt;" style="text;html=1;align=center;verticalAlign=middle;resizable=0;points=[];autosize=1;strokeColor=none;fillColor=none;" parent="1" vertex="1">
          <mxGeometry x="210" y="250" width="120" height="30" as="geometry" />
        </mxCell>
        <mxCell id="1G_mwM_GGULK1q_mN7D--43" value="" style="endArrow=classic;html=1;rounded=0;" parent="1" edge="1">
          <mxGeometry width="50" height="50" relative="1" as="geometry">
            <mxPoint x="230" y="480" as="sourcePoint" />
            <mxPoint x="45" y="512" as="targetPoint" />
            <Array as="points">
              <mxPoint x="230" y="512" />
            </Array>
          </mxGeometry>
        </mxCell>
        <mxCell id="1G_mwM_GGULK1q_mN7D--44" value="" style="endArrow=none;html=1;rounded=0;" parent="1" edge="1">
          <mxGeometry width="50" height="50" relative="1" as="geometry">
            <mxPoint x="240" y="80" as="sourcePoint" />
            <mxPoint x="360" y="80" as="targetPoint" />
          </mxGeometry>
        </mxCell>
        <mxCell id="1G_mwM_GGULK1q_mN7D--45" value="" style="endArrow=none;html=1;rounded=0;" parent="1" edge="1">
          <mxGeometry width="50" height="50" relative="1" as="geometry">
            <mxPoint x="240" y="160" as="sourcePoint" />
            <mxPoint x="360" y="160" as="targetPoint" />
          </mxGeometry>
        </mxCell>
        <mxCell id="1G_mwM_GGULK1q_mN7D--46" value="" style="endArrow=none;html=1;rounded=0;" parent="1" edge="1">
          <mxGeometry width="50" height="50" relative="1" as="geometry">
            <mxPoint x="360" y="160" as="sourcePoint" />
            <mxPoint x="360" y="80" as="targetPoint" />
          </mxGeometry>
        </mxCell>
        <mxCell id="1G_mwM_GGULK1q_mN7D--47" value="" style="endArrow=none;html=1;rounded=0;" parent="1" edge="1">
          <mxGeometry width="50" height="50" relative="1" as="geometry">
            <mxPoint x="240" y="160" as="sourcePoint" />
            <mxPoint x="240" y="80" as="targetPoint" />
          </mxGeometry>
        </mxCell>
        <mxCell id="1G_mwM_GGULK1q_mN7D--48" value="&lt;div&gt;fb_editor.py&lt;/div&gt;" style="text;html=1;align=center;verticalAlign=middle;resizable=0;points=[];autosize=1;strokeColor=none;fillColor=none;" parent="1" vertex="1">
          <mxGeometry x="250" y="110" width="90" height="30" as="geometry" />
        </mxCell>
        <mxCell id="1G_mwM_GGULK1q_mN7D--49" value="class FunctionBlockEditor" style="text;html=1;align=center;verticalAlign=middle;resizable=0;points=[];autosize=1;strokeColor=none;fillColor=none;" parent="1" vertex="1">
          <mxGeometry x="215" y="48" width="160" height="30" as="geometry" />
        </mxCell>
        <mxCell id="1G_mwM_GGULK1q_mN7D--50" value="" style="endArrow=classic;html=1;rounded=0;" parent="1" edge="1">
          <mxGeometry width="50" height="50" relative="1" as="geometry">
            <mxPoint x="440" y="250" as="sourcePoint" />
            <mxPoint x="360" y="110" as="targetPoint" />
            <Array as="points">
              <mxPoint x="420" y="250" />
              <mxPoint x="420" y="110" />
            </Array>
          </mxGeometry>
        </mxCell>
        <mxCell id="1G_mwM_GGULK1q_mN7D--52" value="" style="endArrow=none;html=1;rounded=0;" parent="1" edge="1">
          <mxGeometry width="50" height="50" relative="1" as="geometry">
            <mxPoint x="200" y="80" as="sourcePoint" />
            <mxPoint x="200" y="30" as="targetPoint" />
          </mxGeometry>
        </mxCell>
        <mxCell id="1G_mwM_GGULK1q_mN7D--53" value="" style="endArrow=none;html=1;rounded=0;" parent="1" edge="1">
          <mxGeometry width="50" height="50" relative="1" as="geometry">
            <mxPoint x="120" y="80" as="sourcePoint" />
            <mxPoint x="120" y="30" as="targetPoint" />
          </mxGeometry>
        </mxCell>
        <mxCell id="1G_mwM_GGULK1q_mN7D--54" value="" style="endArrow=none;html=1;rounded=0;" parent="1" edge="1">
          <mxGeometry width="50" height="50" relative="1" as="geometry">
            <mxPoint x="120" y="30" as="sourcePoint" />
            <mxPoint x="200" y="30" as="targetPoint" />
          </mxGeometry>
        </mxCell>
        <mxCell id="1G_mwM_GGULK1q_mN7D--55" value="" style="endArrow=none;html=1;rounded=0;" parent="1" edge="1">
          <mxGeometry width="50" height="50" relative="1" as="geometry">
            <mxPoint x="120" y="80" as="sourcePoint" />
            <mxPoint x="200" y="80" as="targetPoint" />
          </mxGeometry>
        </mxCell>
        <mxCell id="1G_mwM_GGULK1q_mN7D--56" value="&lt;div&gt;fb_renderer.py&lt;/div&gt;" style="text;html=1;align=center;verticalAlign=middle;resizable=0;points=[];autosize=1;strokeColor=none;fillColor=none;" parent="1" vertex="1">
          <mxGeometry x="110" y="38" width="100" height="30" as="geometry" />
        </mxCell>
        <mxCell id="1G_mwM_GGULK1q_mN7D--57" value="&lt;div&gt;class&amp;nbsp;&lt;/div&gt;&lt;div&gt;FuncionBlockRenderer&lt;/div&gt;" style="text;html=1;align=center;verticalAlign=middle;resizable=0;points=[];autosize=1;strokeColor=none;fillColor=none;" parent="1" vertex="1">
          <mxGeometry x="85" y="-10" width="150" height="40" as="geometry" />
        </mxCell>
        <mxCell id="1G_mwM_GGULK1q_mN7D--58" value="" style="endArrow=classic;html=1;rounded=0;" parent="1" edge="1">
          <mxGeometry width="50" height="50" relative="1" as="geometry">
            <mxPoint x="240" y="100" as="sourcePoint" />
            <mxPoint x="190" y="78" as="targetPoint" />
            <Array as="points">
              <mxPoint x="220" y="100" />
              <mxPoint x="190" y="100" />
            </Array>
          </mxGeometry>
        </mxCell>
        <mxCell id="1G_mwM_GGULK1q_mN7D--59" value="" style="endArrow=classic;html=1;rounded=0;" parent="1" edge="1">
          <mxGeometry width="50" height="50" relative="1" as="geometry">
            <mxPoint x="260" y="160" as="sourcePoint" />
            <mxPoint x="-140" y="220" as="targetPoint" />
            <Array as="points">
              <mxPoint x="260" y="220" />
            </Array>
          </mxGeometry>
        </mxCell>
        <mxCell id="1G_mwM_GGULK1q_mN7D--60" value="" style="endArrow=none;html=1;rounded=0;" parent="1" edge="1">
          <mxGeometry width="50" height="50" relative="1" as="geometry">
            <mxPoint x="180" y="190" as="sourcePoint" />
            <mxPoint x="180" y="120" as="targetPoint" />
          </mxGeometry>
        </mxCell>
        <mxCell id="1G_mwM_GGULK1q_mN7D--61" value="" style="endArrow=none;html=1;rounded=0;" parent="1" edge="1">
          <mxGeometry width="50" height="50" relative="1" as="geometry">
            <mxPoint x="100" y="190" as="sourcePoint" />
            <mxPoint x="100" y="120" as="targetPoint" />
          </mxGeometry>
        </mxCell>
        <mxCell id="1G_mwM_GGULK1q_mN7D--62" value="" style="endArrow=none;html=1;rounded=0;" parent="1" edge="1">
          <mxGeometry width="50" height="50" relative="1" as="geometry">
            <mxPoint x="100" y="190" as="sourcePoint" />
            <mxPoint x="180" y="190" as="targetPoint" />
          </mxGeometry>
        </mxCell>
        <mxCell id="1G_mwM_GGULK1q_mN7D--63" value="" style="endArrow=none;html=1;rounded=0;" parent="1" edge="1">
          <mxGeometry width="50" height="50" relative="1" as="geometry">
            <mxPoint x="100" y="120" as="sourcePoint" />
            <mxPoint x="180" y="120" as="targetPoint" />
          </mxGeometry>
        </mxCell>
        <mxCell id="1G_mwM_GGULK1q_mN7D--64" value="&lt;div&gt;ecc_editor.py&lt;/div&gt;" style="text;html=1;align=center;verticalAlign=middle;resizable=0;points=[];autosize=1;strokeColor=none;fillColor=none;" parent="1" vertex="1">
          <mxGeometry x="90" y="138" width="90" height="30" as="geometry" />
        </mxCell>
        <mxCell id="1G_mwM_GGULK1q_mN7D--65" value="class EccEditor" style="text;html=1;align=center;verticalAlign=middle;resizable=0;points=[];autosize=1;strokeColor=none;fillColor=none;" parent="1" vertex="1">
          <mxGeometry x="80" y="98" width="110" height="30" as="geometry" />
        </mxCell>
        <mxCell id="1G_mwM_GGULK1q_mN7D--66" value="" style="endArrow=classic;html=1;rounded=0;entryX=0.978;entryY=0.033;entryDx=0;entryDy=0;entryPerimeter=0;" parent="1" target="1G_mwM_GGULK1q_mN7D--64" edge="1">
          <mxGeometry width="50" height="50" relative="1" as="geometry">
            <mxPoint x="240" y="140" as="sourcePoint" />
            <mxPoint x="310" y="170" as="targetPoint" />
          </mxGeometry>
        </mxCell>
        <mxCell id="1G_mwM_GGULK1q_mN7D--67" value="" style="endArrow=none;html=1;rounded=0;" parent="1" edge="1">
          <mxGeometry width="50" height="50" relative="1" as="geometry">
            <mxPoint x="-40" y="108" as="sourcePoint" />
            <mxPoint x="-40" y="38" as="targetPoint" />
          </mxGeometry>
        </mxCell>
        <mxCell id="1G_mwM_GGULK1q_mN7D--68" value="" style="endArrow=none;html=1;rounded=0;" parent="1" edge="1">
          <mxGeometry width="50" height="50" relative="1" as="geometry">
            <mxPoint x="50" y="108" as="sourcePoint" />
            <mxPoint x="50" y="38" as="targetPoint" />
          </mxGeometry>
        </mxCell>
        <mxCell id="1G_mwM_GGULK1q_mN7D--69" value="" style="endArrow=none;html=1;rounded=0;" parent="1" edge="1">
          <mxGeometry width="50" height="50" relative="1" as="geometry">
            <mxPoint x="-40" y="108" as="sourcePoint" />
            <mxPoint x="50" y="108" as="targetPoint" />
          </mxGeometry>
        </mxCell>
        <mxCell id="1G_mwM_GGULK1q_mN7D--70" value="" style="endArrow=none;html=1;rounded=0;" parent="1" edge="1">
          <mxGeometry width="50" height="50" relative="1" as="geometry">
            <mxPoint x="-40" y="38" as="sourcePoint" />
            <mxPoint x="50" y="38" as="targetPoint" />
          </mxGeometry>
        </mxCell>
        <mxCell id="1G_mwM_GGULK1q_mN7D--71" value="ecc_renderer.py" style="text;html=1;align=center;verticalAlign=middle;resizable=0;points=[];autosize=1;strokeColor=none;fillColor=none;" parent="1" vertex="1">
          <mxGeometry x="-50" y="56" width="110" height="30" as="geometry" />
        </mxCell>
        <mxCell id="DzmmM3WBSsCqbPa7CIRs-1" value="&lt;div&gt;class&lt;/div&gt;EccRenderer" style="text;html=1;align=center;verticalAlign=middle;resizable=0;points=[];autosize=1;strokeColor=none;fillColor=none;" parent="1" vertex="1">
          <mxGeometry x="-40" y="3" width="90" height="40" as="geometry" />
        </mxCell>
        <mxCell id="DzmmM3WBSsCqbPa7CIRs-2" value="" style="endArrow=classic;html=1;rounded=0;exitX=0.157;exitY=1.067;exitDx=0;exitDy=0;exitPerimeter=0;" parent="1" source="1G_mwM_GGULK1q_mN7D--65" edge="1">
          <mxGeometry width="50" height="50" relative="1" as="geometry">
            <mxPoint x="30" y="110" as="sourcePoint" />
            <mxPoint x="50" y="100" as="targetPoint" />
            <Array as="points">
              <mxPoint x="70" y="130" />
              <mxPoint x="70" y="100" />
            </Array>
          </mxGeometry>
        </mxCell>
        <mxCell id="DzmmM3WBSsCqbPa7CIRs-4" value="" style="endArrow=none;html=1;rounded=0;exitX=0.925;exitY=0.967;exitDx=0;exitDy=0;exitPerimeter=0;" parent="1" source="DzmmM3WBSsCqbPa7CIRs-8" edge="1">
          <mxGeometry width="50" height="50" relative="1" as="geometry">
            <mxPoint x="40" y="190" as="sourcePoint" />
            <mxPoint x="40" y="120" as="targetPoint" />
          </mxGeometry>
        </mxCell>
        <mxCell id="DzmmM3WBSsCqbPa7CIRs-5" value="" style="endArrow=none;html=1;rounded=0;exitX=0.092;exitY=0.967;exitDx=0;exitDy=0;exitPerimeter=0;" parent="1" source="DzmmM3WBSsCqbPa7CIRs-8" edge="1">
          <mxGeometry width="50" height="50" relative="1" as="geometry">
            <mxPoint x="-60" y="190" as="sourcePoint" />
            <mxPoint x="-60" y="120" as="targetPoint" />
          </mxGeometry>
        </mxCell>
        <mxCell id="DzmmM3WBSsCqbPa7CIRs-6" value="" style="endArrow=none;html=1;rounded=0;" parent="1" edge="1">
          <mxGeometry width="50" height="50" relative="1" as="geometry">
            <mxPoint x="-60" y="168" as="sourcePoint" />
            <mxPoint x="40" y="168" as="targetPoint" />
          </mxGeometry>
        </mxCell>
        <mxCell id="DzmmM3WBSsCqbPa7CIRs-7" value="" style="endArrow=none;html=1;rounded=0;" parent="1" edge="1">
          <mxGeometry width="50" height="50" relative="1" as="geometry">
            <mxPoint x="-60" y="120" as="sourcePoint" />
            <mxPoint x="40" y="120" as="targetPoint" />
          </mxGeometry>
        </mxCell>
        <mxCell id="DzmmM3WBSsCqbPa7CIRs-8" value="&lt;div&gt;function_block.py&lt;/div&gt;" style="text;html=1;align=center;verticalAlign=middle;resizable=0;points=[];autosize=1;strokeColor=none;fillColor=none;" parent="1" vertex="1">
          <mxGeometry x="-70" y="138" width="120" height="30" as="geometry" />
        </mxCell>
        <mxCell id="DzmmM3WBSsCqbPa7CIRs-9" value="class ...&amp;nbsp;" style="text;html=1;align=center;verticalAlign=middle;resizable=0;points=[];autosize=1;strokeColor=none;fillColor=none;" parent="1" vertex="1">
          <mxGeometry x="-50" y="168" width="70" height="30" as="geometry" />
        </mxCell>
        <mxCell id="DzmmM3WBSsCqbPa7CIRs-10" value="" style="endArrow=classic;html=1;rounded=0;exitX=0.122;exitY=0.067;exitDx=0;exitDy=0;exitPerimeter=0;" parent="1" source="1G_mwM_GGULK1q_mN7D--64" edge="1">
          <mxGeometry width="50" height="50" relative="1" as="geometry">
            <mxPoint x="60" y="250" as="sourcePoint" />
            <mxPoint x="40" y="140" as="targetPoint" />
          </mxGeometry>
        </mxCell>
        <mxCell id="DzmmM3WBSsCqbPa7CIRs-11" value="" style="endArrow=none;html=1;rounded=0;" parent="1" edge="1">
          <mxGeometry width="50" height="50" relative="1" as="geometry">
            <mxPoint x="80" y="320" as="sourcePoint" />
            <mxPoint x="80" y="250" as="targetPoint" />
          </mxGeometry>
        </mxCell>
        <mxCell id="DzmmM3WBSsCqbPa7CIRs-12" value="" style="endArrow=none;html=1;rounded=0;" parent="1" edge="1">
          <mxGeometry width="50" height="50" relative="1" as="geometry">
            <mxPoint x="190" y="320" as="sourcePoint" />
            <mxPoint x="190" y="250" as="targetPoint" />
          </mxGeometry>
        </mxCell>
        <mxCell id="DzmmM3WBSsCqbPa7CIRs-13" value="" style="endArrow=none;html=1;rounded=0;" parent="1" edge="1">
          <mxGeometry width="50" height="50" relative="1" as="geometry">
            <mxPoint x="80" y="320" as="sourcePoint" />
            <mxPoint x="190" y="320" as="targetPoint" />
          </mxGeometry>
        </mxCell>
        <mxCell id="DzmmM3WBSsCqbPa7CIRs-14" value="" style="endArrow=none;html=1;rounded=0;" parent="1" edge="1">
          <mxGeometry width="50" height="50" relative="1" as="geometry">
            <mxPoint x="80" y="250" as="sourcePoint" />
            <mxPoint x="190" y="250" as="targetPoint" />
          </mxGeometry>
        </mxCell>
        <mxCell id="DzmmM3WBSsCqbPa7CIRs-15" value="system_editor.py" style="text;html=1;align=center;verticalAlign=middle;resizable=0;points=[];autosize=1;strokeColor=none;fillColor=none;" parent="1" vertex="1">
          <mxGeometry x="80" y="268" width="110" height="30" as="geometry" />
        </mxCell>
        <mxCell id="DzmmM3WBSsCqbPa7CIRs-16" value="class SystemEditor" style="text;html=1;align=center;verticalAlign=middle;resizable=0;points=[];autosize=1;strokeColor=none;fillColor=none;" parent="1" vertex="1">
          <mxGeometry x="70" y="228" width="130" height="30" as="geometry" />
        </mxCell>
        <mxCell id="DzmmM3WBSsCqbPa7CIRs-17" value="" style="endArrow=classic;html=1;rounded=0;" parent="1" edge="1">
          <mxGeometry width="50" height="50" relative="1" as="geometry">
            <mxPoint x="220" y="310" as="sourcePoint" />
            <mxPoint x="190" y="310" as="targetPoint" />
          </mxGeometry>
        </mxCell>
        <mxCell id="DzmmM3WBSsCqbPa7CIRs-18" value="" style="endArrow=classic;html=1;rounded=0;exitX=1;exitY=0.967;exitDx=0;exitDy=0;exitPerimeter=0;" parent="1" source="1G_mwM_GGULK1q_mN7D--42" edge="1">
          <mxGeometry width="50" height="50" relative="1" as="geometry">
            <mxPoint x="100" y="360" as="sourcePoint" />
            <mxPoint x="330" y="160" as="targetPoint" />
          </mxGeometry>
        </mxCell>
        <mxCell id="DzmmM3WBSsCqbPa7CIRs-19" value="" style="endArrow=classic;html=1;rounded=0;" parent="1" edge="1">
          <mxGeometry width="50" height="50" relative="1" as="geometry">
            <mxPoint x="110" y="190" as="sourcePoint" />
            <mxPoint x="-140" y="210" as="targetPoint" />
            <Array as="points">
              <mxPoint x="110" y="210" />
            </Array>
          </mxGeometry>
        </mxCell>
        <mxCell id="DzmmM3WBSsCqbPa7CIRs-20" value="" style="endArrow=classic;html=1;rounded=0;exitX=0.085;exitY=0.9;exitDx=0;exitDy=0;exitPerimeter=0;" parent="1" source="DzmmM3WBSsCqbPa7CIRs-16" edge="1">
          <mxGeometry width="50" height="50" relative="1" as="geometry">
            <mxPoint x="100" y="360" as="sourcePoint" />
            <mxPoint x="-140" y="255" as="targetPoint" />
          </mxGeometry>
        </mxCell>
        <mxCell id="DzmmM3WBSsCqbPa7CIRs-21" value="" style="endArrow=none;html=1;rounded=0;" parent="1" edge="1">
          <mxGeometry width="50" height="50" relative="1" as="geometry">
            <mxPoint x="120" y="660" as="sourcePoint" />
            <mxPoint x="120" y="590" as="targetPoint" />
          </mxGeometry>
        </mxCell>
        <mxCell id="DzmmM3WBSsCqbPa7CIRs-22" value="" style="endArrow=none;html=1;rounded=0;" parent="1" edge="1">
          <mxGeometry width="50" height="50" relative="1" as="geometry">
            <mxPoint x="40" y="660" as="sourcePoint" />
            <mxPoint x="40" y="590" as="targetPoint" />
          </mxGeometry>
        </mxCell>
        <mxCell id="DzmmM3WBSsCqbPa7CIRs-23" value="" style="endArrow=none;html=1;rounded=0;" parent="1" edge="1">
          <mxGeometry width="50" height="50" relative="1" as="geometry">
            <mxPoint x="40" y="660" as="sourcePoint" />
            <mxPoint x="120" y="660" as="targetPoint" />
          </mxGeometry>
        </mxCell>
        <mxCell id="DzmmM3WBSsCqbPa7CIRs-24" value="" style="endArrow=none;html=1;rounded=0;" parent="1" edge="1">
          <mxGeometry width="50" height="50" relative="1" as="geometry">
            <mxPoint x="40" y="590" as="sourcePoint" />
            <mxPoint x="120" y="590" as="targetPoint" />
          </mxGeometry>
        </mxCell>
        <mxCell id="DzmmM3WBSsCqbPa7CIRs-25" value="xmlParser.py" style="text;html=1;align=center;verticalAlign=middle;resizable=0;points=[];autosize=1;strokeColor=none;fillColor=none;" parent="1" vertex="1">
          <mxGeometry x="30" y="608" width="90" height="30" as="geometry" />
        </mxCell>
        <mxCell id="DzmmM3WBSsCqbPa7CIRs-26" value="" style="endArrow=classic;html=1;rounded=0;" parent="1" edge="1">
          <mxGeometry width="50" height="50" relative="1" as="geometry">
            <mxPoint x="460" y="560" as="sourcePoint" />
            <mxPoint x="120" y="600" as="targetPoint" />
            <Array as="points">
              <mxPoint x="460" y="600" />
            </Array>
          </mxGeometry>
        </mxCell>
        <mxCell id="DzmmM3WBSsCqbPa7CIRs-27" value="" style="endArrow=classic;html=1;rounded=0;" parent="1" edge="1">
          <mxGeometry width="50" height="50" relative="1" as="geometry">
            <mxPoint x="40" y="600" as="sourcePoint" />
            <mxPoint x="-60" y="130" as="targetPoint" />
            <Array as="points">
              <mxPoint x="-80" y="600" />
              <mxPoint x="-80" y="130" />
            </Array>
          </mxGeometry>
        </mxCell>
        <mxCell id="DzmmM3WBSsCqbPa7CIRs-28" value="" style="endArrow=none;html=1;rounded=0;" parent="1" edge="1">
          <mxGeometry width="50" height="50" relative="1" as="geometry">
            <mxPoint y="420" as="sourcePoint" />
            <mxPoint y="350" as="targetPoint" />
          </mxGeometry>
        </mxCell>
        <mxCell id="DzmmM3WBSsCqbPa7CIRs-29" value="" style="endArrow=none;html=1;rounded=0;" parent="1" edge="1">
          <mxGeometry width="50" height="50" relative="1" as="geometry">
            <mxPoint x="120" y="420" as="sourcePoint" />
            <mxPoint x="120" y="350" as="targetPoint" />
          </mxGeometry>
        </mxCell>
        <mxCell id="DzmmM3WBSsCqbPa7CIRs-30" value="" style="endArrow=classic;html=1;rounded=0;" parent="1" edge="1">
          <mxGeometry width="50" height="50" relative="1" as="geometry">
            <mxPoint x="220" y="390" as="sourcePoint" />
            <mxPoint x="120" y="390" as="targetPoint" />
          </mxGeometry>
        </mxCell>
        <mxCell id="DzmmM3WBSsCqbPa7CIRs-31" value="" style="endArrow=none;html=1;rounded=0;" parent="1" edge="1">
          <mxGeometry width="50" height="50" relative="1" as="geometry">
            <mxPoint y="350" as="sourcePoint" />
            <mxPoint x="120" y="350" as="targetPoint" />
          </mxGeometry>
        </mxCell>
        <mxCell id="DzmmM3WBSsCqbPa7CIRs-32" value="" style="endArrow=none;html=1;rounded=0;" parent="1" edge="1">
          <mxGeometry width="50" height="50" relative="1" as="geometry">
            <mxPoint y="419" as="sourcePoint" />
            <mxPoint x="120" y="419" as="targetPoint" />
          </mxGeometry>
        </mxCell>
        <mxCell id="DzmmM3WBSsCqbPa7CIRs-33" value="system_config_&lt;div&gt;editor.py&lt;/div&gt;" style="text;html=1;align=center;verticalAlign=middle;resizable=0;points=[];autosize=1;strokeColor=none;fillColor=none;" parent="1" vertex="1">
          <mxGeometry y="363" width="110" height="40" as="geometry" />
        </mxCell>
        <mxCell id="DzmmM3WBSsCqbPa7CIRs-34" value="class SystemConfigEditor" style="text;html=1;align=center;verticalAlign=middle;resizable=0;points=[];autosize=1;strokeColor=none;fillColor=none;" parent="1" vertex="1">
          <mxGeometry x="-25" y="320" width="160" height="30" as="geometry" />
        </mxCell>
        <mxCell id="DzmmM3WBSsCqbPa7CIRs-35" value="" style="endArrow=classic;html=1;rounded=0;exitX=-0.009;exitY=0.425;exitDx=0;exitDy=0;exitPerimeter=0;" parent="1" source="DzmmM3WBSsCqbPa7CIRs-33" edge="1">
          <mxGeometry width="50" height="50" relative="1" as="geometry">
            <mxPoint x="-10" y="390" as="sourcePoint" />
            <mxPoint x="-140" y="380" as="targetPoint" />
          </mxGeometry>
        </mxCell>
        <mxCell id="DzmmM3WBSsCqbPa7CIRs-37" value="" style="endArrow=classic;html=1;rounded=0;" parent="1" edge="1">
          <mxGeometry width="50" height="50" relative="1" as="geometry">
            <mxPoint x="90" y="420" as="sourcePoint" />
            <mxPoint x="90" y="590" as="targetPoint" />
          </mxGeometry>
        </mxCell>
        <mxCell id="DzmmM3WBSsCqbPa7CIRs-38" value="" style="endArrow=classic;html=1;rounded=0;" parent="1" edge="1">
          <mxGeometry width="50" height="50" relative="1" as="geometry">
            <mxPoint x="120" y="370" as="sourcePoint" />
            <mxPoint x="250" y="160" as="targetPoint" />
            <Array as="points">
              <mxPoint x="210" y="370" />
              <mxPoint x="210" y="180" />
              <mxPoint x="250" y="180" />
            </Array>
          </mxGeometry>
        </mxCell>
        <mxCell id="DzmmM3WBSsCqbPa7CIRs-39" value="" style="endArrow=none;html=1;rounded=0;" parent="1" edge="1">
          <mxGeometry width="50" height="50" relative="1" as="geometry">
            <mxPoint x="-111" y="690" as="sourcePoint" />
            <mxPoint x="-111" y="630" as="targetPoint" />
          </mxGeometry>
        </mxCell>
        <mxCell id="DzmmM3WBSsCqbPa7CIRs-40" value="" style="endArrow=none;html=1;rounded=0;" parent="1" edge="1">
          <mxGeometry width="50" height="50" relative="1" as="geometry">
            <mxPoint x="-111" y="630" as="sourcePoint" />
            <mxPoint x="-1" y="630" as="targetPoint" />
          </mxGeometry>
        </mxCell>
        <mxCell id="DzmmM3WBSsCqbPa7CIRs-41" value="" style="endArrow=none;html=1;rounded=0;" parent="1" edge="1">
          <mxGeometry width="50" height="50" relative="1" as="geometry">
            <mxPoint x="-110" y="690" as="sourcePoint" />
            <mxPoint y="690" as="targetPoint" />
          </mxGeometry>
        </mxCell>
        <mxCell id="DzmmM3WBSsCqbPa7CIRs-42" value="" style="endArrow=none;html=1;rounded=0;" parent="1" edge="1">
          <mxGeometry width="50" height="50" relative="1" as="geometry">
            <mxPoint x="-1" y="690" as="sourcePoint" />
            <mxPoint x="-1" y="630" as="targetPoint" />
          </mxGeometry>
        </mxCell>
        <mxCell id="DzmmM3WBSsCqbPa7CIRs-43" value="&lt;div&gt;system_renderer.py&lt;/div&gt;" style="text;html=1;align=center;verticalAlign=middle;resizable=0;points=[];autosize=1;strokeColor=none;fillColor=none;" parent="1" vertex="1">
          <mxGeometry x="-121" y="640" width="130" height="30" as="geometry" />
        </mxCell>
        <mxCell id="DzmmM3WBSsCqbPa7CIRs-44" value="class SystemRenderer" style="text;html=1;align=center;verticalAlign=middle;resizable=0;points=[];autosize=1;strokeColor=none;fillColor=none;" parent="1" vertex="1">
          <mxGeometry x="-126" y="690" width="140" height="30" as="geometry" />
        </mxCell>
        <mxCell id="DzmmM3WBSsCqbPa7CIRs-47" value="" style="endArrow=classic;html=1;rounded=0;" parent="1" edge="1">
          <mxGeometry width="50" height="50" relative="1" as="geometry">
            <mxPoint y="410" as="sourcePoint" />
            <mxPoint x="-90" y="630" as="targetPoint" />
            <Array as="points">
              <mxPoint x="-90" y="410" />
            </Array>
          </mxGeometry>
        </mxCell>
      </root>
    </mxGraphModel>
  </diagram>
</mxfile>
